<svg width="60" height="66" viewBox="0 0 60 66" fill="none" xmlns="http://www.w3.org/2000/svg">
<path d="M54.3178 33.927C53.6669 33.558 52.9847 33.2478 52.2791 33C52.9847 32.7522 53.6669 32.442 54.3178 32.073C55.6097 31.3245 56.7421 30.3279 57.6502 29.1402C58.5584 27.9524 59.2245 26.5968 59.6106 25.1508C59.9967 23.7047 60.0953 22.1964 59.9006 20.7121C59.7059 19.2278 59.2218 17.7965 58.4759 16.5C57.7301 15.2035 56.737 14.067 55.5536 13.1557C54.3701 12.2443 53.0193 11.5757 51.5784 11.1882C50.1375 10.8007 48.6346 10.7019 47.1556 10.8972C45.6766 11.0926 44.2505 11.5785 42.9585 12.327C42.3163 12.7096 41.7082 13.1472 41.1411 13.635C41.2785 12.8978 41.3515 12.15 41.3593 11.4C41.3593 8.37653 40.1625 5.4769 38.0322 3.33898C35.9019 1.20107 33.0127 0 30 0C26.9873 0 24.0981 1.20107 21.9678 3.33898C19.8375 5.4769 18.6407 8.37653 18.6407 11.4C18.6485 12.15 18.7215 12.8978 18.8589 13.635C18.2918 13.1472 17.6837 12.7096 17.0415 12.327C14.4323 10.8153 11.3317 10.4056 8.4216 11.1882C5.51153 11.9708 3.03042 13.8815 1.52409 16.5C0.0177529 19.1185 -0.390413 22.2303 0.389381 25.1508C1.16917 28.0713 3.07305 30.5613 5.68218 32.073C6.33306 32.442 7.0153 32.7522 7.72087 33C7.0153 33.2478 6.33306 33.558 5.68218 33.927C3.73593 35.054 2.16647 36.735 1.17231 38.7573C0.178146 40.7797 -0.196044 43.0525 0.0970706 45.2883C0.390185 47.524 1.33743 49.6224 2.819 51.3178C4.30056 53.0132 6.24987 54.2296 8.42036 54.813C9.38566 55.0723 10.3805 55.2044 11.3798 55.206C13.3685 55.2037 15.3214 54.6749 17.0415 53.673C17.6837 53.2904 18.2918 52.8528 18.8589 52.365C18.7215 53.1022 18.6485 53.85 18.6407 54.6C18.6407 57.6235 19.8375 60.5231 21.9678 62.661C24.0981 64.7989 26.9873 66 30 66C33.0127 66 35.9019 64.7989 38.0322 62.661C40.1625 60.5231 41.3593 57.6235 41.3593 54.6C41.3515 53.85 41.2785 53.1022 41.1411 52.365C41.7082 52.8528 42.3163 53.2904 42.9585 53.673C44.6792 54.6728 46.6321 55.1995 48.6202 55.2C49.6195 55.1984 50.6143 55.0663 51.5796 54.807C53.7501 54.2236 55.6994 53.0072 57.181 51.3118C58.6626 49.6164 59.6098 47.518 59.9029 45.2823C60.196 43.0465 59.8219 40.7737 58.8277 38.7513C57.8335 36.729 56.2641 35.048 54.3178 33.921V33.927ZM44.7521 15.444C45.6369 14.8907 46.6235 14.5218 47.6532 14.359C48.683 14.1962 49.7348 14.243 50.7462 14.4966C51.7575 14.7502 52.7077 15.2054 53.5402 15.835C54.3727 16.4647 55.0705 17.256 55.592 18.1619C56.1135 19.0677 56.4481 20.0696 56.5759 21.1079C56.7036 22.1462 56.622 23.1996 56.3358 24.2056C56.0496 25.2116 55.5646 26.1495 54.9098 26.9635C54.255 27.7776 53.4437 28.4511 52.5243 28.944C51.0984 29.769 48.0642 30.789 41.6433 31.185L41.2128 31.161C40.7615 28.4154 39.325 25.9303 37.1743 24.174L37.3716 23.781C40.9288 18.399 43.3262 16.272 44.7521 15.444ZM30 40.8C28.4628 40.8 26.9602 40.3425 25.682 39.4855C24.4039 38.6284 23.4077 37.4102 22.8195 35.9849C22.2312 34.5597 22.0773 32.9913 22.3772 31.4783C22.6771 29.9652 23.4173 28.5754 24.5043 27.4846C25.5912 26.3937 26.9761 25.6508 28.4837 25.3499C29.9914 25.0489 31.5541 25.2034 32.9743 25.7937C34.3944 26.3841 35.6083 27.3839 36.4623 28.6666C37.3163 29.9493 37.7721 31.4573 37.7721 33C37.7721 35.0687 36.9533 37.0527 35.4957 38.5154C34.0382 39.9782 32.0613 40.8 30 40.8ZM30 3.6C32.0613 3.6 34.0382 4.42178 35.4957 5.88457C36.9533 7.34735 37.7721 9.33131 37.7721 11.4C37.7721 13.053 37.1354 16.2 34.2657 21.981C34.188 22.101 34.1073 22.221 34.0296 22.344C31.4305 21.3491 28.5575 21.3491 25.9585 22.344L25.7223 21.978C22.8646 16.2 22.2279 13.053 22.2279 11.4C22.2279 9.33131 23.0467 7.34735 24.5043 5.88457C25.9618 4.42178 27.9387 3.6 30 3.6ZM7.47575 28.956C5.76433 27.8858 4.53435 26.1899 4.0456 24.2266C3.55684 22.2632 3.84755 20.1861 4.85635 18.4338C5.86515 16.6816 7.51305 15.3914 9.45202 14.8357C11.391 14.2801 13.4693 14.5025 15.2479 15.456C16.6738 16.284 19.0712 18.411 22.6224 23.793L22.8197 24.186C20.6687 25.9462 19.2342 28.4359 18.7872 31.185L18.3567 31.209C11.9358 30.801 8.90164 29.781 7.47575 28.956ZM15.2479 50.556C13.4693 51.5095 11.391 51.7319 9.45202 51.1763C7.51305 50.6206 5.86515 49.3304 4.85635 47.5782C3.84755 45.8259 3.55684 43.7488 4.0456 41.7854C4.53435 39.8221 5.76433 38.1262 7.47575 37.056C8.90164 36.231 11.9358 35.211 18.3567 34.815L18.7872 34.839C19.2385 37.5846 20.675 40.0697 22.8257 41.826L22.6284 42.219C19.0712 47.601 16.6738 49.728 15.2479 50.556ZM30 62.4C28.9793 62.4 27.9687 62.1983 27.0257 61.8063C26.0828 61.4143 25.226 60.8397 24.5043 60.1154C23.7826 59.3911 23.2101 58.5313 22.8195 57.5849C22.4289 56.6386 22.2279 55.6243 22.2279 54.6C22.2279 52.947 22.8646 49.8 25.7343 44.019C25.812 43.899 25.8927 43.779 25.9704 43.656C28.5695 44.6509 31.4425 44.6509 34.0415 43.656L34.2777 44.022C37.1354 49.8 37.7721 52.947 37.7721 54.6C37.7721 55.6243 37.5711 56.6386 37.1805 57.5849C36.7899 58.5313 36.2174 59.3911 35.4957 60.1154C34.774 60.8397 33.9172 61.4143 32.9743 61.8063C32.0313 62.1983 31.0207 62.4 30 62.4ZM55.3701 47.7C54.8598 48.5873 54.1804 49.365 53.3706 49.9888C52.5608 50.6125 51.6366 51.0701 50.6506 51.3353C49.6646 51.6005 48.6362 51.6682 47.6241 51.5345C46.612 51.4008 45.6361 51.0683 44.7521 50.556C43.3262 49.728 40.9288 47.601 37.3775 42.219L37.1803 41.826C39.3313 40.0658 40.7658 37.5761 41.2128 34.827L41.6582 34.8C48.0792 35.196 51.1133 36.216 52.5392 37.041C53.4225 37.5543 54.1964 38.2372 54.8166 39.0507C55.4369 39.8642 55.8915 40.7923 56.1544 41.7821C56.4172 42.7719 56.4833 43.8039 56.3487 44.8193C56.2141 45.8347 55.8816 46.8136 55.3701 47.7Z" fill="#435243"/>
</svg>
